<?xml version="1.0" encoding="UTF-8"?>
<!DOCTYPE svg PUBLIC "-//W3C//DTD SVG 1.1//EN" "http://www.w3.org/Graphics/SVG/1.1/DTD/svg11.dtd">
<!-- Creator: CorelDRAW -->
<svg xmlns="http://www.w3.org/2000/svg" xml:space="preserve" width="42cm" height="29.7cm" version="1.1" style="shape-rendering:geometricPrecision; text-rendering:geometricPrecision; image-rendering:optimizeQuality; fill-rule:evenodd; clip-rule:evenodd"
viewBox="0 0 42000 29700"
 xmlns:xlink="http://www.w3.org/1999/xlink"
 xmlns:xodm="http://www.corel.com/coreldraw/odm/2003">
 <defs>
  <style type="text/css">
   <![CDATA[
    .fil4 {fill:#FEFEFE;fill-rule:nonzero}
    .fil2 {fill:#F4A983;fill-rule:nonzero}
    .fil13 {fill:#E3C781;fill-rule:nonzero}
    .fil6 {fill:#D97445;fill-rule:nonzero}
    .fil0 {fill:#D7BB73;fill-rule:nonzero}
    .fil7 {fill:#B78E2A;fill-rule:nonzero}
    .fil1 {fill:#B29968;fill-rule:nonzero}
    .fil9 {fill:#AE925B;fill-rule:nonzero}
    .fil12 {fill:#A8833E;fill-rule:nonzero}
    .fil11 {fill:#907342;fill-rule:nonzero}
    .fil10 {fill:#7A6B57;fill-rule:nonzero}
    .fil8 {fill:#535875;fill-rule:nonzero}
    .fil3 {fill:#3B4348;fill-rule:nonzero}
    .fil5 {fill:#3F4153;fill-rule:nonzero}
   ]]>
  </style>
 </defs>
 <g id="Layer_x0020_1">
  <metadata id="CorelCorpID_0Corel-Layer"/>
  <path class="fil0" d="M6388.5 11712.95c0,0 -563.17,985.55 -828.17,1764.02 -265.03,778.47 -567.92,1416.96 -567.92,1416.96l-213.17 -1311.88c0,0 -1015.08,-870.14 -1773.72,-318.8 -633.87,460.67 -1261.46,2100.56 -1169.03,2530.74 0,0 187.56,1003.91 228.97,1782.38 41.41,778.47 -8.28,1606.75 99.38,2699.95 107.66,1092.96 438.94,2293.8 1755.71,2343.64 1316.8,49.61 1904.78,-844.75 2211.21,-1805.38 306.43,-960.64 968.96,-2873.91 968.96,-2873.91 0,0 182.19,1739.34 356.12,2857.24 173.9,1118.1 207.05,1308.46 182.2,1631.42 -24.85,323.19 -24.85,994.01 -140.79,2219.53 -115.95,1225.75 -165.64,1996.01 -165.64,1996.01l231.89 140.77 0 1821.86 11147.13 0 -331.28 -2420.9 331.28 -154.73c0,0 -397.56,-1656.13 -728.78,-2694.25 -331.28,-1037.88 -596.3,-2053.82 -596.3,-2053.82 0,0 817.1,1479.69 1877.16,1545.97 1060.05,66.28 1369.25,-662.59 1479.67,-1612.25 110.41,-949.64 -187.7,-1656.37 -761.92,-2440.31 -574.19,-783.97 -430.64,-1082.22 -927.53,-1921.27 -496.91,-839.28 -1126.3,-3445.22 -1888.25,-4350.69 -761.89,-905.48 -2031.75,-850.25 -2484.49,-894.42 -452.73,-44.16 -1556.95,883.36 -3213.28,1093.19 -1656.34,209.78 -4063.52,-2578.35 -5079.41,-991.07z"/>
  <path class="fil1" d="M12991.74 1010.34c-1215.64,-122.94 -3312.66,375.44 -3798.52,2649.99 -485.87,2274.84 44.16,3886.94 375.44,4792.42 331.25,905.47 339.54,1065.58 339.54,1065.58 0,0 -463.77,265 -472.07,703.93 0,0 -1010.36,-298.14 -1573.5,-107.65 -563.13,190.49 -604.56,612.83 -604.56,612.83 0,0 -612.87,33.14 -869.57,985.51 0,0 563.13,-41.4 1772.27,869.57 1209.11,911 3279.53,3147.09 4521.8,3445.14 1242.23,298.25 2269.17,-745.33 2898.59,-1739.08 629.39,-993.81 1308.47,-2666.72 165.61,-2898.61 0,0 -612.84,-894.39 -298.12,-2020.69 314.7,-1126.34 1821.95,-2997.91 1043.48,-5399.72 -778.48,-2401.53 -2462.42,-2854.42 -3500.39,-2959.22z"/>
  <path class="fil2" d="M12342.37 2402.42c-1026.62,-25.91 -2102.78,464.99 -2450.58,1475.29 -347.86,1010.59 -488.77,2112.74 -240.33,2990.6 248.45,877.75 1026.95,2865.32 2732.95,2832.22 1706.03,-33.14 2269.19,-1176 2567.33,-1971.03 298.14,-795.05 210.78,-975.78 132.5,-2202.89 -70.17,-1099.84 -623.48,-3070.92 -2741.87,-3124.19z"/>
  <path class="fil2" d="M2519.47 11136c0,0 -77.66,-872.83 -112.17,-1347.52 -51.93,-714.12 -189.35,-1050.75 -82.34,-1313.65 107.01,-262.87 394.23,-326.84 593.51,-397.53 199.28,-70.65 526.56,-121.93 921.66,-187.92 395.12,-66.05 1138.09,-294.05 1473.31,-284.95 335.23,9.1 379.39,316.1 379.39,316.1 0,0 207.04,35.27 256.74,405.25 0,0 252.59,104.14 356.09,489.26 0,0 190.49,57.32 219.48,260.21 29,202.9 -43.42,344.73 -185.27,868.02 -141.86,523.29 -138.52,573.36 -220.52,704.01 -82.03,130.66 -376.82,350.89 -525.91,532.31 -149.05,181.41 -291.43,-128.59 -215.42,-439.13 0,0 -124.12,674.36 -618.33,1080.35 0,0 19.98,376.22 -35.82,678.91 -74.51,404.41 55.37,1082.33 55.37,1082.33 0,0 -1015.03,1634 -2329.41,2323.39 0,0 139.09,-1968.07 139.09,-2766.14 0,-1115.28 -69.45,-2003.3 -69.45,-2003.3z"/>
  <path class="fil2" d="M3772.53 7901.07c0,0 -219.13,-1032.76 236.36,-1132.38 455.48,-99.33 713.92,380.83 726.87,919.26 0,0 -141.28,31.41 -285.81,65.91 -144.59,34.52 -302.6,73.97 -421.17,98.38 -118.53,24.45 -256.25,48.83 -256.25,48.83z"/>
  <path class="fil2" d="M17902.52 16171.19c0,0 -184.7,-629.25 -239.92,-1026.92 -55.22,-397.47 -231.89,-1358.14 -364.39,-1998.55 -132.53,-640.47 -485.86,-485.89 -828.17,-463.81 -342.3,22.11 -795.02,33.14 -1115.27,66.28 -320.23,33.11 -317.72,474.81 -317.72,474.81 0,0 -123.98,-22.09 -289.59,99.39 -165.64,121.44 -320.22,220.83 -320.22,651.47 0,0 -463.78,44.16 -519,364.39 -55.22,320.31 55.22,552.07 55.22,552.07 0,0 -320.22,99.45 -298.13,474.96 22.08,375.29 198.74,706.69 331.24,805.91 132.5,99.41 738.74,485.91 971.15,309.22 0,0 331.82,375.53 883.97,530.02 0,0 253.97,474.96 452.71,993.78 198.75,519.06 244.04,810.55 244.04,810.55 0,0 687.26,-612.95 959.17,-1335.71 271.92,-722.76 394.91,-1307.86 394.91,-1307.86z"/>
  <path class="fil3" d="M11340.94 5584.49c0,187.43 -122.37,339.45 -273.32,339.45 -150.93,0 -273.29,-152.02 -273.29,-339.45 0,-187.44 122.36,-339.46 273.29,-339.46 150.95,0 273.32,152.02 273.32,339.46z"/>
  <path class="fil3" d="M13767.48 5584.49c0,187.43 -122.37,339.45 -273.32,339.45 -150.93,0 -273.29,-152.02 -273.29,-339.45 0,-187.44 122.36,-339.46 273.29,-339.46 150.95,0 273.32,152.02 273.32,339.46z"/>
  <path class="fil3" d="M11308.66 4592.9c-83.12,107.97 -256.27,44.05 -526.34,0 -270.07,-44.05 -526.35,78.89 -623.28,61.61 -96.98,-17.56 117.73,-221.98 373.97,-275.83 256.22,-54.12 966.97,-34.26 775.65,214.22z"/>
  <path class="fil3" d="M13018.26 4592.9c83.12,107.97 256.25,44.05 526.34,0 270.07,-44.05 526.31,78.89 623.29,61.61 96.93,-17.56 -117.73,-221.98 -373.98,-275.83 -256.25,-54.12 -966.97,-34.26 -775.65,214.22z"/>
  <path class="fil4" d="M11250.59 7323.68c-60.75,-201.37 96.45,-404.12 280.86,-362.92 203.73,45.55 448.2,92.85 586.72,93.52 144.36,0.69 465.01,-50.28 729.9,-97.41 195.27,-34.72 340.49,193.77 251.15,394.65 -162.76,365.97 -460.84,807.21 -946.62,782.53 -535.84,-27.24 -794.01,-452.4 -902.01,-810.37z"/>
  <path class="fil2" d="M30841.57 1914.98c-1465.22,-7.2 -2910.57,527.17 -3191.49,1982.02 -280.97,1454.85 0,2909.7 0,2909.7 0,0 -351.25,-970 -873.25,-558.85 -521.79,411.14 -130.45,1750.05 1134.14,1760.61 0,0 933.4,1518.08 1926.91,1887.04 993.6,369 1949.49,227.98 2629.84,-137.05 434.76,-233.44 977.2,-1078.16 1304.84,-1961 0,0 933.15,-326.67 1093.51,-1001.41 160.66,-674.59 -361.04,-1201.76 -993.6,-368.82 0,0 1204.65,-4491.22 -3030.9,-4512.24z"/>
  <path class="fil2" d="M29334.6 9423.87c0,0 189.74,482.28 268.92,1138.56 79.18,656.23 197.8,1367.84 197.8,1367.84 0,0 482.26,648.37 1280.65,616.73 798.69,-31.62 1012.32,-616.73 1012.32,-616.73 0,0 158.07,-1960.86 325.06,-2506.4l-3084.75 0z"/>
  <path class="fil5" d="M34262.31 2994.95c-200.1,-282.15 -511.34,-898.59 -665.66,-979.78 -165.56,-86.95 -669.99,-142.23 -730.16,-173.9 -60.18,-31.67 -180.53,-411.15 -526.89,-522 -346.36,-110.55 -624.78,-94.72 -700.22,-150 -75.14,-55.57 -143.09,-150.29 -233.21,-205.57 -90.12,-55.57 -858.28,-213.64 -1791.43,-55.57 -933.53,158.35 -1377.45,506.16 -1671.07,735.34 -293.59,229.47 -572.03,371.7 -639.78,450.88 -67.75,78.89 -22.57,387.25 -7.6,561.15 15,174.19 -316.19,348.09 -338.99,513.94 -23.01,166.12 158.3,363.92 135.72,426.97 -22.57,63.35 -142.89,229.48 -135.52,395.31 7.4,161.81 264.51,990.73 274.84,1282.1 93.72,383.22 166.13,771.62 216.78,1162.9 132.99,183.98 200.96,369.98 200.96,369.98 0,0 52.75,-363.65 173.07,-529.77 120.52,-166.13 143.13,-545.6 173.1,-695.9 30.17,-150.29 398.94,-482.26 436.71,-616.72 37.58,-134.46 190.63,-1204.36 612.29,-1468.09 234.36,-146.55 2335.58,-282.73 3291.18,-132.44 956.18,150.29 931.41,314.69 1187.08,828.62 255.96,513.94 348.96,2234.82 348.96,2234.82 37.14,-52.4 73.42,-98.18 108.55,-138.78 56.14,-556.54 220.54,-1099.55 323.62,-1651.2 101.34,-544.17 137.62,-1125.18 -42.33,-1642.29z"/>
  <path class="fil0" d="M29401.4 9619.19c0,0 212.48,756.1 307.49,924.79 94.73,168.66 284.47,548.2 421.8,685.25 137.05,137.05 1006.57,1043.66 1006.57,1043.66 0,0 558.84,-569.29 701.07,-990.95 142.52,-421.71 382.94,-1194.37 426.12,-1411.57l127.55 -58.85c0,0 258.26,384.57 310.95,542.7 0,0 210.76,-68.53 437.64,10.53 226.3,79.09 590.23,173.93 1159.44,221.38 569.21,47.45 1149.08,-42.15 1496.88,126.51 348.1,168.69 543.02,358.43 927.67,701.08 384.95,342.63 980.65,1064.75 1297.07,2108.42 316.13,1043.7 305.48,4459.3 305.48,4459.3 0,0 -938.03,569.27 -2804.03,379.5 0,0 -116.32,1465.56 -31.67,2161.28 84.36,695.73 52.69,1823.73 253.08,2245.5 200.1,421.74 444.55,1198.52 -272.08,1831.13l-2.3 4019.85 -9846.24 0 171.6 -4296.8c0,0 -350.8,-383.97 -456.35,-615.94 -105.32,-231.97 31.67,-1633.99 0,-1939.85 -31.67,-305.65 848.76,-3542.16 848.76,-3542.16 0,0 -1613.09,-498.16 -2332.45,-640.41 0,0 71.14,-2269.14 0,-2980.9 -71.35,-711.51 1304.5,-2719.82 1857.93,-3210.02 553.46,-490.21 996.31,-569.27 1644.56,-648.33 648.44,-79.07 1597.25,-221.41 1597.25,-221.41 0,0 209.25,-699.07 305.99,-997.87 0,0 84.65,59.74 140.22,94.18z"/>
  <path class="fil2" d="M26187.9 18223.95c0,0 -300.59,1539.21 -479.79,2498.58 -179.2,959.37 -579.84,2066.29 -938.26,2709.24 -358.41,643.18 -906.6,843.49 -1233.33,885.7 -326.79,42 -948.83,-189.77 -1412.78,-1381.11 -463.75,-1191.35 -495.42,-4290.67 -548.2,-5713.78 -52.75,-1423.33 42.21,-1463.64 -52.75,-1748.38 -94.77,-284.56 -105.34,-539.33 -147.55,-817.95 -42.01,-278.42 -337.29,-1511.86 -221.32,-2133.85 115.94,-621.98 1170.12,-1128.03 1697.19,-1444.3 527.29,-316.25 727.62,-263.53 948.82,126.51 0,0 474.52,-67.64 632.62,124.32 158.09,191.96 168.63,392.26 168.63,392.26 0,0 326.79,-105.44 537.63,84.33 210.9,189.77 221.44,442.79 221.44,442.79 0,0 284.75,-84.33 379.53,453.33 94.98,537.65 84.45,1033.1 63.31,1338.84 -21.1,305.74 -274.18,516.58 -558.73,938.3 -284.75,421.74 -516.73,168.66 -495.62,-136.99 0,0 -105.32,484.84 -558.74,906.59 0,0 -42.2,231.77 -115.88,400.63 -73.88,168.67 31.04,453.62 189.56,1527.81 0,0 1644.76,431.24 1924.22,547.13z"/>
  <path class="fil2" d="M35519.94 20825.11c0,0 76.87,603.71 593.4,1447.19 516.52,843.28 851.66,1692.67 1718.58,1876.51 1043.41,221.2 1644.58,-295.3 1950.06,-938.24 305.77,-643.18 485.14,-1494.9 485.14,-3921.93 0,-2479.98 89.54,-3515.76 295.11,-4401.25 205.58,-885.55 426.99,-1660.42 316.14,-1945.06 -110.56,-284.63 -505.87,-458.56 -1091.21,-901.35 -585.05,-442.79 -980.36,-585.08 -1328.16,-189.77 0,0 -434.76,-189.77 -759.24,158.13 0,0 -324.19,-39.54 -545.32,379.53 0,0 -260.85,-23.72 -411.14,229.3 -150.29,252.99 -237.24,537.66 -253.08,766.95 -15.84,229.27 139.35,775.79 226.59,1210.55 86.95,435.04 445.41,315.36 461.24,94.15 0,0 47.51,410.98 379.48,830.18 332.26,418.98 260.85,569.27 426.98,869.65 0,0 -64.21,1308.3 -126.4,1755.35 0,0 -1151.66,369 -2335.01,215.94 0,0 -112.28,1543.24 -3.16,2464.17z"/>
  <path class="fil4" d="M30028.77 7563.69c-38.58,-106.53 -95.59,-188.38 -6.05,-225.9 29.95,-12.5 63.92,-16.96 99.63,-10.66 306.05,54.19 797.53,123.9 1207.52,102.39 346.65,-18.2 683.81,-68.35 922.49,-111.11 150.58,-27 171.89,95.79 102.21,238.83 -202.41,415.12 -450.01,1090.25 -1170.67,1045.2 -716.63,-44.86 -1017.79,-659.31 -1155.13,-1038.75z"/>
  <path class="fil3" d="M30299.13 4928.03c47.51,-153.46 -299.44,-238.39 -589.37,-177.64 -289.93,61.04 -415.46,213.35 -396.17,299.43 19.29,86.38 236.95,-45.78 495.5,-55.86 257.98,-10.07 422.38,152.31 490.04,-65.93z"/>
  <path class="fil3" d="M31811.56 4928.03c-47.51,-153.46 299.43,-238.39 589.36,-177.64 289.65,61.04 415.47,213.35 396.18,299.43 -19.29,86.38 -237.25,-45.78 -495.51,-55.86 -258.26,-10.07 -422.37,152.31 -490.03,-65.93z"/>
  <path class="fil3" d="M32392.58 6013.49c0,206.72 -119.49,374.29 -266.61,374.29 -147.71,0 -267.19,-167.57 -267.19,-374.29 0,-206.73 119.48,-374.3 267.19,-374.3 147.12,0 266.61,167.57 266.61,374.3z"/>
  <path class="fil6" d="M30945.22 10161.86c-40.31,0 -80.34,-0.78 -119.78,-2.34 -525.16,-20.75 -990.72,-174.65 -1423.75,-470.45 -20.16,-13.68 -25.05,-41 -11.52,-61.07 13.53,-20.01 40.88,-25.16 61.04,-11.49 762.12,520.5 1615.51,594.38 2766.6,239.66 23.32,-7.16 47.79,5.85 54.99,29.05 7.2,23.18 -6.04,47.77 -29.08,54.91 -483.12,148.85 -909.53,221.73 -1298.5,221.73z"/>
  <path class="fil7" d="M31172.96 22260.47c-23.04,0 -42.62,-18.14 -43.76,-41.58 -164.4,-3267.35 -166.71,-6580.9 -6.63,-9848.65 1.15,-23.49 20.44,-41.75 43.76,-41.75 0.87,0 1.45,0 2.31,0.03 24.18,1.21 42.9,21.8 41.46,46.04 -159.8,3264.9 -157.49,6575.52 6.91,9839.9 1.15,24.27 -17.28,44.74 -41.75,46.01 -0.57,0 -1.44,0 -2.3,0z"/>
  <path class="fil7" d="M29384.7 24688.13c-23.32,0 -42.61,-18.17 -43.76,-41.57 -1.44,-24.3 17.27,-44.98 41.46,-46.24 276.97,-14.37 522.86,-177.3 771.33,-357.57 557.12,-404.43 1107.62,-833.15 1635.95,-1274.09 164.4,-137.43 308.93,-263.65 412.58,-420.91 116.9,-177.3 159.51,-373.6 116.61,-538.46 -6.05,-23.64 8.06,-47.48 31.67,-53.61 23.61,-6.13 47.51,8.03 53.55,31.44 48.95,188.93 2.31,410.98 -128.7,609.18 -109.98,166.99 -259.7,298.05 -429.57,439.71 -529.77,442.21 -1082,872.18 -1640.27,1277.66 -259.69,188.49 -517.38,358.83 -818.83,374.46 -0.58,0 -1.45,0 -2.02,0z"/>
  <path class="fil7" d="M31162.6 23486.22c-24.19,0 -43.77,-19.2 -44.06,-43.04l-16.12 -949.04c-0.29,-24.27 19,-44.11 43.18,-44.54 0.3,0 0.3,0 0.87,0 23.9,0 43.48,19 43.76,43.08l16.13 948.8c0.57,24.27 -19.01,44.33 -43.19,44.74 -0.29,0 -0.57,0 -0.57,0z"/>
  <path class="fil7" d="M31176.12 24642.76c-6.04,0 -12.38,-1.27 -18.42,-4.04 -22.17,-10.1 -31.38,-36.3 -21.31,-58.24 152.6,-329.49 157.78,-725.06 13.82,-1058.39 -9.79,-22.14 0.58,-48.1 22.75,-57.61 22.45,-9.7 48.08,0.64 57.87,22.81 153.74,355.89 148.28,778.27 -14.68,1130.13 -7.49,15.84 -23.61,25.34 -40.03,25.34z"/>
  <path class="fil7" d="M35946.06 11828.93c-6.34,0 -12.96,-1.39 -19.01,-4.35 -908.67,-437.61 -1921.85,-644.19 -2929.56,-597.45 -24.19,0.86 -44.63,-17.6 -45.78,-41.87 -0.86,-24.22 17.57,-44.77 42.04,-45.89 1021.82,-47.42 2049.4,162.18 2971.6,606.06 21.59,10.51 30.8,36.77 20.44,58.65 -7.78,15.69 -23.33,24.85 -39.73,24.85z"/>
  <path class="fil7" d="M35999.9 11871.4c-1.16,0 -2.31,-0.03 -2.88,-0.09 -24.47,-1.61 -42.9,-22.57 -41.17,-46.76 25.33,-377.69 -49.24,-757.05 -215.37,-1097.17 -10.65,-21.79 -1.44,-48.08 20.16,-58.73 21.88,-10.69 48.08,-1.58 59.02,20.18 172.46,353.85 249.91,748.62 224,1141.57 -1.73,23.2 -21.02,41 -43.76,41z"/>
  <path class="fil7" d="M28242.56 14550.76c-583.2,0 -1054.32,-25.77 -1062.99,-26.29 -24.27,-1.35 -42.84,-22.11 -41.37,-46.33 1.26,-24.21 21.97,-42.69 46.24,-41.37 16.03,0.89 1618.55,88.56 2570.23,-61.9 23.9,-3.72 46.36,12.58 50.1,36.56 3.75,23.96 -12.38,46.44 -36.56,50.25 -443.4,70.1 -1025.79,89.08 -1525.65,89.08z"/>
  <path class="fil7" d="M27211.64 15010.88c-21.5,0 -40.3,-15.84 -43.47,-37.81 -26.61,-187.86 -37.78,-309.65 -29.97,-494.29 0.83,-24.28 22.16,-43.36 45.6,-42.07 24.28,1.04 43.05,21.51 42.01,45.72 -7.4,177.82 3.57,296.04 29.31,478.41 3.4,24.07 -13.27,46.24 -37.34,49.61 -2.1,0.43 -4.24,0.43 -6.14,0.43z"/>
  <path class="fil7" d="M28451.13 15191.77c-415.84,0 -831.88,-47.5 -1236.95,-142.69 -23.44,-5.69 -38.21,-29.34 -32.71,-52.97 5.7,-23.44 29.34,-38.21 52.98,-32.54 822.8,193.37 1691.2,187.03 2511.3,-18.77 23.32,-5.9 47.22,8.44 53.27,31.87 5.75,23.64 -8.36,47.51 -31.96,53.41 -429.86,107.86 -872.89,161.69 -1315.93,161.69z"/>
  <path class="fil7" d="M29807.08 14989.34c-23.61,0 -43.19,-19 -43.77,-42.87 -4.03,-153.23 -19.29,-307.52 -44.91,-458.45 -4.32,-23.9 11.8,-46.58 35.7,-50.7 23.9,-4.06 46.65,11.97 50.67,35.87 26.49,155.19 42.33,313.51 46.36,470.98 0.58,24.27 -18.43,44.54 -42.61,45.17 -0.58,0 -0.87,0 -1.44,0z"/>
  <path class="fil7" d="M28382.72 18602.21c-5.27,0 -10.54,-0.83 -15.84,-2.96 -322.93,-124.12 -620.55,-300.35 -884.42,-524.32 -98.35,-83.39 -208.11,-186.81 -275.45,-321.27 -77.05,-153.45 -89.49,-322.52 -96.68,-511.65 -21.74,-563.17 -22.14,-1134.14 -1.27,-1697.1 0.86,-24.28 20.47,-43.48 45.4,-42.24 24.24,0.86 43.25,21.13 42.42,45.4 -20.68,560.84 -20.28,1129.7 1.26,1690.54 6.76,178.59 18.17,337.96 87.39,475.79 60.17,120.11 162.12,215.73 253.7,293.61 256.48,217.44 545.46,388.84 859.12,509.36 22.8,8.63 34.01,33.97 25.34,56.57 -6.77,17.51 -23.44,28.27 -40.97,28.27z"/>
  <path class="fil7" d="M28428.53 18574.78c-17.74,0 -34.18,-10.77 -40.94,-28.07 -8.87,-22.6 2.32,-48.15 24.9,-56.78 295.95,-114.85 590.72,-243.81 875.76,-383.13 128.7,-62.89 251.06,-127.93 331.68,-230.28 122.36,-155.79 132.44,-374.67 132.73,-604.14l0.29 -1673.66 -8.64 -7.17c-857.5,194.4 -1762,188.93 -2616.88,-16.04 -23.64,-5.7 -38.21,-29.34 -32.51,-52.97 5.5,-23.64 29.34,-38.21 52.98,-32.51 848.98,203.47 1747.34,207.27 2598.14,11.17 13.24,-3.13 27.64,0.23 38.01,9.1l40.88 34.17c10.08,8.44 15.83,20.71 15.83,33.78l-0.28 1694.13c0,245.51 -11.81,480.65 -151.45,658.38 -92.13,116.96 -224,187.44 -362.2,254.98 -287.34,140.39 -584.22,270.41 -882.47,386.07 -5.27,1.91 -10.53,2.97 -15.83,2.97z"/>
  <path class="fil7" d="M28421.99 16486.34c-413.91,0 -827.85,-53.84 -1230.61,-161.29 -23.41,-6.34 -37.35,-30.38 -31.02,-53.81 6.34,-23.44 30.38,-37.38 53.82,-31.04 800.84,213.84 1646.86,210.87 2446.34,-8.44 23.61,-6.33 47.51,7.41 53.85,30.81 6.62,23.44 -7.2,47.5 -30.52,54.04 -412.59,113.15 -837.15,169.73 -1261.86,169.73z"/>
  <path class="fil7" d="M27832.85 18289.19c-23.2,0 -42.61,-18.16 -43.67,-41.8 -29.34,-603.71 -23.87,-1215.42 16.47,-1818.49 1.67,-24.27 22.8,-42.21 46.84,-40.94 24.07,1.69 42.44,22.57 40.74,46.87 -39.88,599.68 -45.57,1208.02 -16.46,1808.33 1.26,24.29 -17.51,44.76 -41.58,46.03 -0.84,0 -1.47,0 -2.34,0z"/>
  <path class="fil7" d="M28767.75 18415.42c-23.84,0 -43.27,-19 -43.91,-43.08l-38.2 -1929.27c-0.63,-24.31 18.8,-44.34 43.04,-44.78 24.3,0.64 44.14,18.8 44.77,43.08l38.21 1929.27c0.63,24.28 -18.8,44.34 -43.07,44.78 -0.21,0 -0.41,0 -0.84,0z"/>
  <path class="fil7" d="M33624.57 15739.31c-371.12,0 -741.96,-23.21 -1111.07,-69.22 -23.9,-3.19 -41.17,-25.13 -38.01,-49.2 2.88,-24.07 25.34,-41.15 48.96,-38 806.16,100.71 1622.12,90.34 2425.12,-31.22 24.19,-3.6 46.64,12.87 50.1,36.91 3.74,24.07 -12.96,46.45 -36.86,50.04 -443.39,67.15 -890.81,100.69 -1338.24,100.69z"/>
  <path class="fil7" d="M32473.19 16496.88c-23.9,0 -43.47,-18.98 -44.05,-43.05 -5.47,-271.47 3.75,-546.06 27.06,-816.27 2.02,-24.27 23.33,-42.01 47.8,-39.88 23.9,2.1 42.03,23.44 39.74,47.48 -23.04,267.24 -32.26,538.69 -26.79,806.97 0.58,24.07 -18.42,44.32 -42.89,44.75 -0.29,0 -0.58,0 -0.87,0z"/>
  <path class="fil7" d="M33825.25 16900.68c-1.72,0 -3.45,0 -5.18,-0.2 -471.32,-57.21 -922.49,-199.7 -1341.12,-423.64 -21.59,-11.41 -29.36,-38.21 -18.14,-59.54 11.52,-21.31 38.3,-29.34 59.6,-17.94 409.13,218.7 849.65,358 1310.02,413.94 24.19,2.97 41.18,24.7 38.3,48.77 -2.59,22.35 -21.6,38.61 -43.48,38.61z"/>
  <path class="fil7" d="M33839.36 16889.08c-19.58,0 -37.43,-13.3 -42.61,-33.34 -5.76,-23.44 8.35,-47.31 31.96,-53.21 421.22,-106.39 830.64,-260.88 1217.32,-459.52 21.59,-10.96 48.08,-2.53 59.02,19.01 11.23,21.51 2.88,48.11 -19.01,59.08 -392.43,201.8 -808.18,358.63 -1235.74,466.51 -3.74,1.04 -7.19,1.47 -10.94,1.47z"/>
  <path class="fil7" d="M35037.97 16391.35c-22.47,0 -41.76,-17.1 -43.77,-39.9l-67.37 -727.8c-2.6,-24.3 15.54,-45.6 39.44,-47.94 24.47,-2.3 45.78,15.64 47.8,39.71l67.66 727.99c2.3,24.08 -15.55,45.62 -39.74,47.72 -1.43,0.22 -2.88,0.22 -4.02,0.22z"/>
  <path class="fil7" d="M32627.23 17835.35c-22.17,0 -41.17,-16.67 -43.48,-39.04 -47.21,-423.65 -68.52,-854.69 -63.05,-1280.86 0,-24.04 19.58,-43.25 43.76,-43.25 0,0 0.29,0 0.58,0 24.18,0.21 43.47,20.24 43.47,44.31 -5.18,422.58 15.84,850.02 62.48,1270.09 2.59,24.04 -14.68,45.78 -38.87,48.55 -1.73,0 -3.16,0.2 -4.89,0.2z"/>
  <path class="fil7" d="M33791.85 18709.23c-4.02,0 -8.06,-0.19 -12.09,-0.19 -116.89,-3.61 -222.27,-57.85 -314.69,-105.76 -386.1,-199.27 -744.27,-408.87 -885.06,-780.37 -8.64,-22.6 2.59,-47.94 25.34,-56.57 22.74,-8.67 48.08,2.73 56.72,25.53 129.85,342.36 473.04,542.27 843.31,733.3 84.36,43.68 179.94,93.09 277.26,96.05 107.97,3.57 213.06,-49.18 306.35,-95.41 316.71,-156.4 589.94,-307.36 724.4,-572.24 10.94,-21.74 37.43,-30.41 59.02,-19.44 21.88,11.2 30.23,37.58 19.29,59.11 -158.64,312.62 -508.46,485.29 -763.56,611.28 -94.72,46.87 -211.62,104.71 -336.29,104.71z"/>
  <path class="fil7" d="M34875.29 17987.77c-2.31,0 -4.9,-0.23 -7.2,-0.66 -23.9,-4 -40.31,-26.58 -36.28,-50.44 78.03,-478.09 89.54,-964.44 34.84,-1445.93 -2.59,-24.04 14.69,-45.77 38.87,-48.54 24.19,-2.94 45.78,14.57 48.66,38.64 55.57,489.49 43.76,983.84 -35.7,1469.97 -3.75,21.53 -22.17,36.96 -43.19,36.96z"/>
  <path class="fil7" d="M33484.93 18584.28l0 0c-24.18,-0.2 -43.76,-19.87 -43.76,-44.11l4.03 -1718.44c0,-24.26 19.58,-43.67 43.77,-43.67l0 0c24.18,0 44.05,19.63 44.05,43.9l-4.03 1718.41c0,24.27 -19.58,43.91 -44.06,43.91z"/>
  <path class="fil7" d="M34131.88 18600.11c-23.89,0 -43.47,-19.23 -44.05,-43.27l-31.95 -1747.34c-0.58,-24.28 18.71,-44.34 42.9,-44.75 24.47,0.64 44.34,19.01 44.91,43.28l31.96 1747.32c0.58,24.3 -18.71,44.33 -43.19,44.76 0,0 -0.58,0 -0.58,0z"/>
  <path class="fil7" d="M35492.87 18379.94c-2.01,0 -3.74,0 -5.75,-0.43 -24.19,-2.94 -40.89,-25.1 -38.01,-49.18 181.67,-1398.61 61.32,-2851.07 -348.38,-4200.68 -7.2,-23.24 6.04,-47.74 29.37,-54.79 23.03,-7.03 47.5,6.04 54.7,29.25 413.16,1361.42 534.66,2826.74 351.55,4237.63 -2.88,22.17 -21.88,38.2 -43.48,38.2z"/>
  <path class="fil7" d="M35561.68 16253.3c-4.31,0 -8.63,-0.64 -13.24,-2.1 -23.04,-7.17 -35.99,-31.88 -28.5,-54.91 198.08,-634.28 276.97,-1292.23 234.65,-1955.22 -1.73,-24.21 16.7,-45.09 40.88,-46.61 23.9,-1.67 45.21,16.78 46.65,41.03 43.18,673.84 -37.15,1342.35 -238.4,1986.98 -6.05,18.8 -23.32,30.83 -42.04,30.83z"/>
  <path class="fil6" d="M23848.28 13708.31c-11,0 -21.74,-4.03 -30.41,-12.09 -17.5,-16.7 -18.13,-44.51 -1.46,-62.08 8.83,-9.5 908.06,-953.7 1484.33,-1385.94 19.4,-14.57 47.07,-10.66 61.64,8.77 14.54,19.38 10.53,46.91 -8.9,61.48 -570.54,427.84 -1464.46,1366.74 -1473.33,1376.18 -8.67,9.07 -20.27,13.68 -31.87,13.68z"/>
  <path class="fil6" d="M23093.01 13017.77c-12.64,0 -25.11,-5.41 -33.77,-15.87 -15.61,-18.65 -12.87,-46.38 5.7,-61.84 9.73,-8.03 973.1,-806.89 1511.97,-1213.92 19.43,-14.63 46.87,-10.74 61.44,8.58 14.77,19.38 10.97,46.9 -8.43,61.53 -537.43,405.85 -1499.11,1203.38 -1508.84,1211.41 -8.23,6.8 -18.14,10.11 -28.07,10.11z"/>
  <path class="fil6" d="M22297.24 12431.37c-11.41,0 -22.81,-4.41 -31.24,-13.22 -17.11,-17.33 -16.68,-45.15 0.63,-62.1 108.29,-106.04 223.97,-203.19 332.86,-292.32 371.73,-304.39 761.4,-596.42 1158.01,-868.02 19.83,-13.68 47.3,-8.58 61.01,11.43 13.73,20.01 8.67,47.37 -11.4,61.07 -394.71,270.15 -782.08,560.69 -1151.88,863.46 -107.45,87.88 -221.2,183.49 -327.16,287.14 -8.66,8.38 -19.64,12.56 -30.83,12.56z"/>
  <path class="fil6" d="M24791.18 14869.85c-6.54,0 -13.1,-1.46 -19.44,-4.43 -21.74,-10.76 -30.6,-37.14 -19.83,-58.88 120.11,-243.17 216.17,-499.47 285.58,-761.77 6.13,-23.47 30.2,-37.4 53.64,-31.27 23.44,6.22 37.37,30.24 31.24,53.67 -70.71,268.02 -168.86,529.97 -291.72,778.21 -7.6,15.61 -23.23,24.47 -39.47,24.47z"/>
  <path class="fil6" d="M25090.7 14082.83c-17.3,0 -33.57,-10.19 -40.74,-27.09 -9.27,-22.4 1.46,-48.11 23.87,-57.41 115.45,-48 220.37,-122.91 303.29,-216.75 16.07,-18.16 43.7,-19.89 61.87,-3.83 18.34,16.04 20.04,43.83 4.01,61.99 -91.62,103.77 -207.71,186.66 -335.63,239.72 -5.47,2.31 -11.17,3.37 -16.67,3.37z"/>
  <path class="fil6" d="M38522.34 13523.96c-12.38,0 -24.47,-4.98 -33.11,-14.8 -383.79,-434.36 -834.67,-798.83 -1339.97,-1083.38 -21.02,-11.89 -28.5,-38.67 -16.41,-59.8 11.81,-21.13 38.58,-28.65 59.6,-16.72 513.65,289.35 972.01,660.01 1362.43,1101.71 16.41,18.14 14.68,45.89 -3.74,61.99 -8.07,7.37 -18.43,11 -28.8,11z"/>
  <path class="fil6" d="M39075.15 13115.46c-13.25,0 -26.49,-5.99 -35.13,-17.36 -309.51,-407.75 -859.15,-765.29 -1356.38,-1061.29 -21.02,-12.41 -27.64,-39.39 -15.55,-60.24 12.67,-20.81 39.73,-27.67 60.46,-15.29 504.44,300.36 1062.99,663.97 1381.72,1083.7 14.39,19.32 10.65,46.87 -8.64,61.55 -8.06,6.02 -17.28,8.93 -26.48,8.93z"/>
  <path class="fil6" d="M39697.33 12910c-11.52,0 -23.32,-4.6 -31.96,-13.7 -365.07,-385.5 -780.54,-720.06 -1235.45,-994.41 -20.44,-12.56 -27.35,-39.54 -14.97,-60.32 12.66,-20.76 39.73,-27.47 60.46,-14.89 461.53,278.42 883.33,617.96 1253.88,1009.21 16.7,17.59 16.12,45.4 -1.72,62.07 -8.36,8.06 -19.58,12.04 -30.24,12.04z"/>
  <path class="fil6" d="M37308.48 22200.73c-23.32,0 -42.9,-18.58 -43.76,-42.41 -46.36,-1340.81 104.22,-2678.21 447.42,-3975.31 6.34,-23.44 30.23,-37.37 53.84,-31.24 23.32,6.33 37.43,30.4 31.1,53.81 -340.9,1288.66 -490.62,2617.43 -444.55,3949.77 0.86,24.3 -18.13,44.54 -42.32,45.38 -0.58,0 -1.15,0 -1.73,0z"/>
  <path class="fil6" d="M36852.71 21789.35c-2.59,0 -5.47,-0.23 -8.35,-0.86 -23.9,-4.64 -39.16,-27.65 -34.55,-51.48 65.06,-333.73 186.28,-650.99 360.76,-942.93 12.67,-20.88 39.73,-27.64 60.46,-15.18 20.73,12.44 27.35,39.45 14.97,60.35 -169.29,283.08 -287.05,590.84 -350.11,914.63 -4.03,20.9 -22.45,35.47 -43.18,35.47z"/>
  <path class="fil6" d="M24774.08 21493.63c-23.01,0 -42.21,-17.74 -43.91,-40.97 -84.85,-1254.66 -256.88,-2515.02 -511.46,-3746.5 -4.83,-23.64 10.34,-47.08 34.2,-51.91 23.64,-4.86 46.88,10.33 51.92,34.18 255.21,1235.27 427.87,2499.64 513.15,3758.33 1.47,24.07 -16.67,45.17 -40.94,46.64 -1.06,0.23 -2.13,0.23 -2.96,0.23z"/>
  <path class="fil6" d="M25090.5 20669.98c-17.74,0 -34.64,-11 -41.18,-28.7 -96.04,-261.31 -237.24,-500.69 -419.4,-711.16 -15.84,-18.34 -13.94,-46.01 4.43,-62.05 18.37,-15.83 46.21,-13.73 62.05,4.64 189.13,218.47 335.62,466.92 435.47,738.16 8.24,22.81 -3.37,47.91 -26.17,56.35 -5.07,1.9 -10.14,2.76 -15.2,2.76z"/>
  <path class="fil6" d="M31407.04 7031.79c-8.93,0 -18.15,-2.82 -26.21,-8.7 -19.29,-14.51 -23.32,-42 -8.64,-61.47 70.26,-94.75 150.3,-201.85 179.09,-323.07 26.49,-110.85 -3.17,-159.22 -61.61,-255.38l-10.08 -16.12c-55.85,-92.14 -97.61,-194.93 -124.38,-305.49 -49.52,-204.13 -44.91,-415.46 -40.6,-619.88l0.87 -43.19c0.57,-23.9 20.15,-43.19 44.05,-43.19 0.28,0 0.57,0 0.86,0 24.18,0.58 43.47,20.74 42.9,44.92l-0.86 43.48c-4.03,198.66 -8.64,403.94 38.29,597.14 24.47,101.92 63.06,196.35 114.02,280.71l9.79 16.13c62.19,101.63 106.81,175.34 71.98,321.31 -32.83,138.49 -118.63,253.66 -194.06,355.09 -8.64,11.61 -21.89,17.71 -35.41,17.71z"/>
  <path class="fil7" d="M26376.63 16052.76c-19.01,0 -36.54,-12.44 -42.24,-31.67 -204.74,-700.15 -360.73,-1421.62 -463.55,-2144.23 -3.37,-23.99 13.33,-46.24 37.37,-49.67 24.07,-3.4 46.24,13.3 49.84,37.34 101.95,718.39 257.08,1435.74 460.78,2132.09 6.74,23.21 -6.53,47.51 -29.76,54.44 -4.24,1.07 -8.44,1.7 -12.44,1.7z"/>
  <path class="fil7" d="M26442.27 16096.67c-1.06,0 -1.9,0 -2.97,-0.2 -24.27,-1.5 -42.64,-22.37 -40.94,-46.64 42.41,-645.72 145.43,-1291 305.86,-1917.88 6.13,-23.49 29.97,-37.54 53.61,-31.64 23.44,6.05 37.57,29.97 31.67,53.47 -159.36,621.73 -261.31,1261.53 -303.55,1901.72 -1.47,23.44 -20.91,41.17 -43.68,41.17z"/>
  <path class="fil7" d="M26204.36 18215.31c-2.73,0 -5.7,-0.23 -8.64,-0.86 -23.63,-4.63 -39.27,-27.87 -34.43,-51.71 136.79,-682.85 206.47,-1382.38 207.1,-2078.94 0,-24.07 19.61,-43.91 43.91,-43.91l0 0c24.27,0.21 43.91,19.84 43.91,44.11 -0.67,702.27 -70.75,1407.52 -208.77,2096.04 -4.24,20.91 -22.4,35.27 -43.08,35.27z"/>
  <path class="fil7" d="M26095.45 11997.53c-13.31,0 -26.38,-5.93 -35.05,-17.24 -147.12,-192.27 -258.14,-407.01 -329.92,-638.2 -7.17,-23.18 5.7,-47.8 28.94,-54.99 23,-7.2 47.67,5.75 54.87,28.93 68.82,221.29 174.97,426.81 315.99,610.87 14.57,19.27 10.97,46.82 -8.23,61.59 -8.04,6.07 -17.3,9.04 -26.6,9.04z"/>
  <path class="fil7" d="M26113.61 11970.9c-15.2,0 -29.97,-7.89 -38.21,-22 -12.03,-21.01 -4.86,-47.88 16.24,-59.97 827.25,-476.94 1724.97,-794.19 2668.08,-942.93 23.87,-3.77 46.44,12.55 50.24,36.53 3.8,23.99 -12.44,46.48 -36.51,50.25 -932.56,147.06 -1820.15,460.7 -2637.9,932.24 -6.97,3.98 -14.57,5.88 -21.94,5.88z"/>
  <path class="fil7" d="M28708.84 12371.65c-3.8,0 -7.8,-0.54 -11.8,-1.64 -17.74,-4.98 -30.61,-20.56 -31.88,-38.93 -51.07,-667.3 41.58,-1352.92 268.09,-1982.77 8,-22.83 33.39,-34.72 56.14,-26.46 22.75,8.18 34.55,33.34 26.49,56.2 -208.66,580.56 -301.54,1209.4 -270.73,1826.32 171.83,-228.75 360.85,-446.44 562.68,-648.36 64.2,-64.38 134.74,-128.67 227.45,-146.67 92.14,-17.84 180.81,14.72 263.74,49.64 484.27,203.53 937.74,473.17 1347.74,801.39 19,15.18 21.88,42.81 6.62,61.76 -15.26,18.95 -42.61,22 -61.62,6.82 -403.66,-323.15 -849.93,-588.62 -1326.72,-789.01 -73.42,-30.89 -145.11,-57.58 -212.77,-44.36 -68.53,13.27 -125.24,65.53 -182.25,122.53 -227.17,227.17 -437.64,474.55 -625.5,735.29 -8.44,11.63 -21.74,18.25 -35.68,18.25z"/>
  <path class="fil7" d="M29559.47 11206.42c-19.87,0 -38.01,-13.62 -42.61,-33.86 -105.38,-447.62 -174.19,-907.26 -204.43,-1366.14 -1.72,-24.21 16.7,-45.11 40.89,-46.73 23.89,-1.29 44.91,16.73 46.64,40.95 29.94,454.07 98.18,908.87 202.4,1351.79 5.48,23.61 -9.2,47.29 -32.81,52.81 -3.18,0.81 -6.63,1.18 -10.08,1.18z"/>
  <path class="fil7" d="M32273.09 11254.42c-1.44,0 -2.88,-0.06 -4.32,-0.23 -24.18,-2.45 -41.75,-24.04 -39.16,-48.17 38.01,-372.08 36.57,-749.37 -3.45,-1121.33 -2.88,-24.15 14.68,-45.81 38.87,-48.42 23.9,-2.62 45.78,14.8 48.37,38.92 40.88,378.09 42.04,761.58 3.46,1139.78 -2.31,22.6 -21.31,39.45 -43.77,39.45z"/>
  <path class="fil7" d="M33087.61 12100.84c-23.61,0 -42.9,-18.43 -44.05,-42.04 -24.76,-578.57 -148.28,-1143.84 -366.81,-1680.14 -9.21,-22.46 1.44,-48.08 24.19,-57.27 22.17,-9.1 48.08,1.64 57,24.13 222.56,545.63 348.09,1120.8 373.43,1709.48 1.15,24.24 -17.56,44.74 -42.03,45.78 -0.58,0.06 -1.16,0.06 -1.73,0.06z"/>
  <path class="fil7" d="M33065.15 12094.51c-10.94,0 -21.88,-4.13 -30.52,-12.39 -233.79,-226.53 -494.35,-425.91 -773.92,-592.62 -20.73,-12.44 -27.93,-39.35 -15.26,-60.23 12.38,-20.82 39.44,-27.64 60.18,-15.23 285.32,170.16 551.36,373.71 790.04,605 17.56,16.85 18.14,44.69 1.15,62.1 -8.64,8.9 -20.15,13.37 -31.67,13.37z"/>
  <path class="fil7" d="M31317.78 12354.09c-13.25,0 -26.2,-5.91 -34.84,-17.13 -14.97,-19.24 -11.23,-46.79 8.07,-61.62 334.84,-257.97 651.26,-545.34 940.04,-854.1 16.7,-17.74 44.34,-18.66 61.91,-2.08 17.85,16.59 19,44.37 2.3,62.08 -292.23,312.25 -612.11,602.84 -950.7,863.7 -8.06,6.18 -17.56,9.15 -26.78,9.15z"/>
  <path class="fil7" d="M31227.95 12360.65c-25.91,0 -51.25,-4.49 -75.72,-13.58 -22.75,-8.47 -34.27,-33.78 -25.91,-56.49 8.63,-22.75 33.97,-34.32 56.71,-25.83 31.96,11.97 69.68,10.33 100.49,-4.44 22.17,-10.39 48.37,-1.18 58.73,20.76 10.37,21.89 1.15,48.12 -20.73,58.56 -29.37,13.97 -61.61,21.02 -93.57,21.02z"/>
  <path class="fil6" d="M37191.88 14815.84c-19.59,0 -37.15,-12.67 -42.62,-32.3 -128.41,-469.22 -195.21,-953.81 -198.66,-1440.31 0,-24.24 19.29,-44.05 43.76,-44.23 23.32,-0.16 44.05,19.35 44.34,43.63 3.17,478.83 69.1,955.86 195.5,1417.67 6.33,23.44 -7.2,47.71 -30.81,54.05 -4.03,1.06 -7.77,1.49 -11.51,1.49z"/>
  <path class="fil6" d="M36745.89 13692.56c-22.75,0 -41.75,-17.39 -43.76,-40.31 -2.02,-24.18 16.12,-45.4 40.01,-47.42 65.36,-5.35 129,-38.72 170.45,-89.2 15.26,-18.74 43.19,-21.42 61.91,-6.01 18.71,15.43 21.3,43.13 6.04,61.84 -57.3,69.48 -141.36,113.56 -231.2,120.93 -1.15,0.11 -2.3,0.17 -3.45,0.17z"/>
  <path class="fil6" d="M36972.48 13368.77l-0.28 0c-77.75,-0.55 -155.48,-25.48 -219.11,-70.17 -19.87,-13.96 -24.47,-41.34 -10.66,-61.21 13.82,-19.81 41.47,-24.61 61.33,-10.68 48.95,34.55 109.12,53.78 169.01,54.22 24.18,0.16 43.76,19.95 43.76,44.22 -0.28,24.16 -19.86,43.62 -44.05,43.62z"/>
  <path class="fil6" d="M27509.26 7493.23c-4.2,0 -8.63,-0.63 -12.87,-1.95 -123.69,-37.84 -206.63,-94.58 -254.34,-173.5 -51.91,-86.29 -54.25,-185.94 -56.58,-282.3 -0.83,-35.16 -1.67,-68.36 -4.64,-100.92 -5.5,-57.33 -25.33,-162.41 -96.88,-220.57 -29.97,-24.19 -72.18,-36.28 -110.41,-31.67 -21.08,2.59 -50.45,11.51 -70.71,38.58 -14.54,19.58 -42.22,23.6 -61.62,8.92 -19.44,-14.4 -23.44,-42.03 -8.87,-61.32 30.38,-40.6 76.82,-66.8 130.43,-73.43 62.07,-7.48 128.15,11.23 176.46,50.68 71.58,58.16 117.38,157.78 128.99,280.55 3.37,35.64 4.23,71.98 5.07,107.1 2.1,88.79 4.23,172.72 44.1,239.06 35.88,59.51 102.82,103.62 204.77,134.8 23.01,7.12 36.11,31.67 29.11,54.91 -5.9,18.89 -23.21,31.06 -42.01,31.06z"/>
  <path class="fil6" d="M34022.19 7391.6c-14.4,0.03 -28.79,-7.14 -36.85,-20.27 -13.25,-20.44 -7.2,-47.62 13.24,-60.66 114.59,-73.22 159.22,-224.64 176.21,-338.83 6.62,-43.44 10.94,-88.84 15.25,-132.61 11.52,-118.04 23.33,-239.84 77.17,-353.85 40.31,-85.8 138.77,-160.37 240.98,-128.7 23.04,7.2 35.99,31.67 28.8,54.99 -7.2,23.04 -31.67,36.28 -54.71,29.08 -52.4,-16.12 -111.14,29.95 -135.9,82.06 -46.92,100.19 -57.58,209.31 -69.1,324.77 -4.03,45.2 -8.63,91.59 -15.54,137.34 -28.8,192.27 -101.35,326.75 -215.94,399.8 -7.2,4.66 -15.55,6.88 -23.61,6.88z"/>
  <path class="fil8" d="M32244.88 3354.27l1.14 -80.32c10.37,-714.61 -197.51,-1431.53 -584.75,-2019.17l35.7 -23.61c377.46,572.67 586.49,1266.55 591.96,1962.74 256.53,-456.64 405.96,-975.18 433.31,-1505.24l42.9 2.3c-29.08,563.75 -194.92,1115.11 -479.38,1594.21l-40.88 69.09z"/>
  <path class="fil8" d="M33106.61 3503.13c-61.9,0 -124.09,-2.59 -186.28,-7.48l3.45 -42.62c426.99,33.69 857.14,-51.25 1243.81,-245.3l19.29 38.29c-337.44,169.29 -707.42,257.11 -1080.27,257.11z"/>
  <path class="fil8" d="M30611.23 2793.7c-168.72,-405.1 -483.99,-745.13 -864.62,-933.14 -380.33,-188.01 -830.47,-226.02 -1234.7,-104.23l-12.24 -40.88c414.37,-124.96 875.82,-86.09 1265.95,106.53 389.83,192.61 712.59,540.71 885.06,955.31l-39.45 16.41z"/>
  <path class="fil8" d="M28893.34 3426.83c-320.22,-353.27 -769.6,-574.68 -1232.72,-607.22l2.97 -42.9c474.08,33.69 933.8,259.99 1261.63,621.33l-31.88 28.79z"/>
  <path class="fil8" d="M27511.39 3687.97l-8.66 -41.75c358.42,-74.57 723.8,-86.95 1085.82,-36.85l-5.93 42.62c-357.13,-49.53 -717.66,-37.44 -1071.23,35.98z"/>
  <path class="fil9" d="M30078 24688.57l0 987.41c-2598.71,-94.75 -4282.08,-358.83 -4282.08,-358.83l-1.7 -987.45c0,0 1683.6,264.08 4283.78,358.87z"/>
  <path class="fil10" d="M31656.08 24721.07l0 987.44c-555.68,-2.56 -1083.72,-14.36 -1578.08,-32.53l0 -987.41c494.36,17.93 1022.4,29.97 1578.08,32.5z"/>
  <path class="fil9" d="M35471.57 24591.05l1.72 987.44c-1362.71,101.92 -2651.14,136.12 -3817.21,130.02l0 -987.44c1165.5,6.1 2453.64,-28.07 3815.49,-130.02z"/>
  <path class="fil5" d="M27562.67 6595.94c58.68,56.72 58.68,148.28 72.84,228.6 14.14,80.34 69.02,172.21 150.07,162.62 43.71,-5.15 78.94,-40.85 96.48,-81.42 17.3,-40.31 20.04,-85.51 22.57,-129.27 18.57,-329.67 37.14,-662.79 -16.67,-988.43 -6.96,-42.03 -17.53,-87.81 -51.51,-113.15 -34.17,-25.33 -97.08,-9.21 -97.94,33.11l-175.84 887.94z"/>
  <path class="fil5" d="M33772.56 5078.9c12.68,581.59 25.05,1163.19 37.43,1744.78 155.48,-274.09 207.02,-605.2 142.81,-913.56l-180.24 -831.22z"/>
  <path class="fil3" d="M30210.45 6067.32c0,206.73 -119.49,374.3 -266.9,374.3 -147.12,0 -266.61,-167.57 -266.61,-374.3 0,-206.44 119.49,-374 266.61,-374 147.41,0 266.9,167.56 266.9,374z"/>
  <path class="fil11" d="M9491.01 6663.31c-20.65,0 -39.39,-13.82 -44.63,-34.84 -169.15,-677.18 -213.52,-1369.33 -131.9,-2057.74 3.03,-25.05 25.86,-43.19 51.11,-40.31 25.22,3.17 43.25,25.91 40.28,51.25 -80.33,677.18 -36.65,1358.11 129.8,2024.35 6.15,24.76 -8.82,49.81 -33.49,55.85 -3.71,1.16 -7.49,1.44 -11.17,1.44z"/>
  <path class="fil11" d="M9360.24 4622.26c-1.82,0 -3.66,0 -5.5,-0.28 -25.23,-3.17 -43.25,-25.91 -40.26,-51.25 2.86,-23.9 5.85,-47.8 8.99,-71.7 3.34,-25.33 26.52,-42.89 51.63,-39.73 25.19,3.46 42.92,26.49 39.61,51.83 -3.11,23.32 -6.05,46.93 -8.84,70.54 -2.79,23.32 -22.65,40.59 -45.63,40.59z"/>
  <path class="fil11" d="M15114.15 7441.84c-3.8,0 -7.66,-0.46 -11.54,-1.46 -24.59,-6.37 -39.42,-31.48 -33.02,-56.06 34.69,-134.32 88.04,-270.88 144.5,-415.41 197.68,-506.27 468.47,-1199.29 280.49,-2660.76 -3.23,-25.05 14.57,-48.09 39.76,-51.25 25.31,-3.17 48.28,14.39 51.51,39.73 190.98,1484.5 -84.73,2190.19 -286.04,2705.74 -57.85,148.1 -107.83,275.99 -141.14,404.95 -5.39,20.76 -24.04,34.52 -44.52,34.52z"/>
  <path class="fil6" d="M3698.94 8396.78c-1.17,0 -2.36,0 -3.48,-0.03 -25.4,-0.49 -45.61,-21.45 -45.15,-46.87 0.46,-25.11 20.97,-45.15 45.98,-45.15 1.16,0 2.25,0.03 3.46,0.03 103.8,0 543.18,-106.47 968.18,-209.52 380.34,-92.16 773.61,-187.46 992.8,-223.77 25.04,-4.2 48.74,12.79 52.89,37.86 4.17,25.08 -12.79,48.78 -37.86,52.89 -215.82,35.76 -607.42,130.69 -986.12,222.48 -469.16,113.7 -875.04,212.08 -990.7,212.08z"/>
  <path class="fil6" d="M3998.32 9102.9c-18.77,0 -36.42,-11.58 -43.24,-30.27 -8.7,-23.86 3.59,-50.26 27.49,-58.99 78.77,-28.71 159.19,-56.8 236.93,-83.96l1671.07 -583.83c23.96,-8.41 50.21,4.26 58.59,28.27 8.38,23.99 -4.26,50.21 -28.27,58.59l-1670.93 583.81c-77.54,27.09 -157.67,55.08 -235.89,83.58 -5.21,1.9 -10.54,2.8 -15.75,2.8z"/>
  <path class="fil6" d="M4350.93 9526.88c-19.84,0 -38.12,-12.95 -44.08,-32.94 -7.22,-24.32 6.65,-49.98 31.01,-57.2 37,-11 74.71,-20.93 111.17,-30.58 23.66,-6.25 47.36,-12.53 70.91,-19.06 238.48,-66.31 473.08,-166.27 699.93,-262.93 335.16,-142.83 681.76,-290.48 1051.3,-334.9 25.19,-3.14 48.17,14.94 51.16,40.16 3.05,25.25 -14.94,48.17 -40.16,51.2 -356.53,42.84 -696.99,187.92 -1026.23,328.22 -229.61,97.81 -467.03,198.95 -711.35,266.9 -23.93,6.65 -47.97,13.01 -72.07,19.37 -35.79,9.48 -72.79,19.27 -108.46,29.84 -4.37,1.29 -8.78,1.92 -13.13,1.92z"/>
  <path class="fil6" d="M5565.37 10270.6c-11.31,0 -22.66,-4.14 -31.56,-12.52 -18.48,-17.42 -19.35,-46.56 -1.92,-65.04 165.61,-175.77 283.19,-402.97 331.01,-639.7 5.04,-24.9 29.37,-41 54.22,-35.99 24.9,5.04 41.03,29.31 36.02,54.22 -52,256.99 -174.48,493.75 -354.29,684.58 -9.01,9.59 -21.24,14.45 -33.48,14.45z"/>
  <path class="fil6" d="M5364 10895.53c-3.63,0 -7.37,-0.44 -11.06,-1.36 -24.67,-6.07 -39.73,-31 -33.66,-55.65 52.32,-212.42 120.44,-422.98 202.44,-625.82 9.53,-23.55 36.39,-34.92 59.89,-25.39 23.55,9.5 34.95,36.36 25.42,59.89 -80.38,198.77 -147.15,405.15 -198.4,613.32 -5.16,20.98 -23.96,35.01 -44.63,35.01z"/>
  <path class="fil12" d="M1878.69 15812.55c150.93,131.3 377.74,144.8 567.75,82.12l135.51 -2253.1c-492.92,831.82 -885.02,1819.76 -703.26,2170.98z"/>
  <path class="fil7" d="M5464.14 18743.84c-23.44,0 -43.48,-17.94 -45.75,-41.57 -8.47,-88.02 -17.54,-183.43 -27.16,-285.39 -92.13,-973.7 -231.36,-2445.6 -443.94,-3514.09 -4.94,-24.9 11.24,-49.17 36.17,-54.04 24.87,-5.07 49.12,11.2 54.1,36.1 213.46,1073.16 352.99,2547.76 445.29,3523.37 9.62,101.95 18.66,197.36 27.1,285.18 2.44,25.34 -16.07,47.71 -41.41,50.24 -1.47,0.2 -2.96,0.2 -4.4,0.2z"/>
  <path class="fil7" d="M6076.42 18565.91c-18.94,0 -36.68,-11.83 -43.36,-30.61 -208.02,-586.8 -477.28,-1154.2 -800.3,-1686.33 -13.15,-21.74 -6.24,-50.04 15.46,-63.31 21.72,-13.1 50.05,-6.13 63.23,15.61 326.24,537.39 598.21,1110.49 808.3,1703.2 8.5,23.87 -4,50.24 -27.98,58.7 -5.07,1.91 -10.25,2.74 -15.35,2.74z"/>
  <path class="fil7" d="M7019.35 18183.01c-4.72,0 -9.5,-0.63 -14.25,-2.13 -24.18,-8.01 -37.37,-33.97 -29.51,-58.04l533.13 -1635.46c55.86,-171.17 113.62,-348.5 153.75,-526.64 5.62,-24.69 30.15,-40.33 55.02,-34.63 24.8,5.5 40.37,30.2 34.75,54.88 -41.08,182.4 -99.52,361.59 -156.04,535.12l-533.11 1635.23c-6.34,19.43 -24.36,31.67 -43.74,31.67z"/>
  <path class="fil13" d="M10168.42 23782.8c-0.63,0 -1.29,0 -1.96,0 -25.39,-1.06 -45.11,-22.37 -44.02,-47.91 66.28,-1585.24 -27.87,-3805.8 -229.01,-5399.92l-105.95 -652.65c-274.04,-977.94 -800.61,-1872.3 -1522.94,-2586.16 -18.08,-17.97 -18.26,-47.08 -0.4,-65.04 17.88,-18.14 47.01,-18.37 65.09,-0.41 734.28,725.7 1269.43,1635.03 1547.56,2629.44 0.46,1.5 0.84,3.17 1.09,4.86l106.62 656.89c201.95,1600.21 296.35,3827.12 229.87,5417 -1.03,24.7 -21.42,43.9 -45.95,43.9z"/>
  <path class="fil13" d="M10105.11 27195.98c-25.2,0 -45.75,-20.24 -45.98,-45.58 -7.06,-745.76 16.04,-1573.61 63.34,-2271.03 1.73,-25.34 23.89,-44.31 49.03,-42.85 25.37,1.67 44.51,23.64 42.79,48.98 -47.16,695.29 -70.17,1520.4 -63.14,2264.07 0.23,25.33 -20.19,46.21 -45.58,46.41 -0.14,0 -0.32,0 -0.46,0z"/>
  <path class="fil7" d="M12840.12 27384.48c-1570.82,0 -3341.6,-185.3 -5284.2,-553.66 -24.97,-4.85 -41.35,-28.91 -36.63,-53.82 4.72,-24.9 28.85,-41.37 53.79,-36.53 2688.8,509.99 6468.96,926.03 9208,12.03l33.6 -11.17c581.28,-192.93 1148.62,-451.72 1697.31,-701.86 23.09,-10.77 50.38,-0.4 60.95,22.8 10.54,23.01 0.34,50.25 -22.75,60.78 -550.9,251.42 -1120.55,511.03 -1706.51,705.66l-33.46 11.18c-317.26,105.78 -1160.05,386.93 -2654.52,497.74 -421.1,31.24 -860.09,46.85 -1315.58,46.85z"/>
  <path class="fil7" d="M13406.29 27336.8c-24.62,0 -45.03,-19.43 -45.96,-44.34 -84.93,-2329.71 -233.87,-4105.13 -365.28,-5671.57 -49.03,-584.47 -95.36,-1136.67 -136.62,-1692.24 -43.35,-583.64 -35.67,-1119.56 -27.52,-1686.97 9.7,-678.84 19.78,-1380.68 -66.25,-2166.97 -2.73,-25.31 15.52,-48.12 40.74,-50.85 25.22,-2.54 47.99,15.6 50.76,40.74 86.61,791.97 76.5,1496.77 66.74,2178.35 -8.09,565.27 -15.75,1099.3 27.29,1678.97 41.24,555.13 87.53,1106.89 136.56,1691.17 131.5,1567.5 280.55,3343.96 365.54,5676 0.92,25.31 -18.91,46.85 -44.28,47.71 -0.57,0 -1.15,0 -1.72,0z"/>
  <path class="fil13" d="M15736.6 23515.79c-21.74,0 -41.03,-15.44 -45.17,-37.57 -80.82,-432.95 -183.75,-933.63 -283.28,-1418.06 -99.65,-484.85 -202.67,-986.17 -283.66,-1419.95l-132.65 -711.99c-0.16,-0.83 -0.31,-1.67 -0.4,-2.5 -141.25,-1087.53 -175.02,-2193.99 -100.31,-3288.25 1.76,-25.34 23.76,-44.11 49.04,-42.64 25.33,1.67 44.48,23.64 42.78,48.97 -74.25,1087.93 -40.77,2187.66 99.56,3268.81l132.41 710.73c80.85,432.91 183.81,934.03 283.37,1418.45 99.62,484.66 202.61,985.98 283.58,1419.52 4.66,24.91 -11.78,48.98 -36.77,53.61 -2.85,0.44 -5.71,0.87 -8.5,0.87z"/>
  <path class="fil13" d="M16496.42 26888.66c-21.25,0 -40.31,-14.77 -44.94,-36.31l-457.22 -2134.67c-5.33,-24.68 10.48,-49.18 35.35,-54.45 24.94,-5.3 49.3,10.34 54.6,35.24l457.24 2134.48c5.32,24.9 -10.51,49.37 -35.36,54.67 -3.25,0.61 -6.48,1.04 -9.67,1.04z"/>
  <path class="fil12" d="M16548.44 18814.76c-150.4,95.01 -367.55,147.15 -492.05,20.07 -76.55,-78.12 -89.31,-197.58 -88.76,-306.89 1.5,-294.49 73.16,-590 200.62,-855.55l380.19 1142.37z"/>
  <path class="fil7" d="M17449.16 21438.52c-15.26,0 -30.14,-7.6 -38.92,-21.3 -531.55,-839.29 -1009.81,-1723.07 -1421.53,-2626.93 -10.52,-23.21 -0.32,-50.45 22.8,-61.02 23.14,-10.53 50.41,-0.19 60.95,22.81 409.97,900.06 886.21,1780.25 1415.52,2615.73 13.59,21.53 7.2,50.04 -14.26,63.54 -7.62,4.84 -16.14,7.17 -24.56,7.17z"/>
  <path class="fil7" d="M18747.1 17425.44c-16.47,0 -32.42,-8.87 -40.68,-24.27 -266.13,-501.75 -555.8,-998.84 -860.99,-1477.8 -13.65,-21.3 -7.38,-49.8 14.08,-63.54 21.39,-13.5 49.83,-7.17 63.51,14.17 306.49,480.82 597.4,980.04 864.71,1483.9 11.88,22.57 3.33,50.23 -19.1,62.27 -6.88,3.57 -14.25,5.27 -21.53,5.27z"/>
  <path class="fil7" d="M20342.79 19435.36c-13.67,0 -27.23,-6.13 -36.3,-17.73l-1604.45 -2053.6c-15.66,-20.07 -12.1,-49 7.94,-64.61 20.02,-15.6 48.92,-12.04 64.59,8.03l1604.45 2053.6c15.63,20.07 12.09,48.98 -7.95,64.61 -8.41,6.54 -18.37,9.7 -28.28,9.7z"/>
  <path class="fil11" d="M10962.5 11606.4c-22.75,0 -42.53,-16.91 -45.55,-40.08 -3.31,-25.2 14.48,-48.29 39.68,-51.57 1009.58,-131.29 2057.68,-486.78 2883.69,-2184.25 11.14,-22.9 38.67,-32.37 61.5,-21.28 22.86,11.14 32.39,38.66 21.25,61.53 -368.97,758.2 -802.66,1301.7 -1325.78,1661.48 -442.78,304.53 -960.32,486.84 -1628.77,573.79 -2.02,0.23 -4.04,0.38 -6.02,0.38z"/>
  <path class="fil11" d="M11868.92 10866.5c-887.96,0 -1754.6,-343.59 -2520,-647.06 -23.61,-9.36 -35.18,-36.07 -25.83,-59.71 9.39,-23.64 36.14,-35.19 59.72,-25.83 763.36,302.63 1628.23,646.54 2505.54,640.5 0.09,0 0.18,0 0.27,0 25.27,0 45.86,20.44 46,45.75 0.15,25.42 -20.32,46.16 -45.72,46.3 -6.62,0.02 -13.39,0.05 -19.98,0.05z"/>
  <path class="fil11" d="M12342.37 10582.79c-4.26,0 -8.64,-0.61 -12.93,-1.87 -24.38,-7.11 -38.37,-32.68 -31.26,-57.04 71.43,-244.32 90.69,-506.73 55.71,-758.86 -3.46,-25.16 14.11,-48.4 39.27,-51.89 25.02,-3.54 48.4,14.08 51.91,39.28 36.71,264.89 16.47,540.6 -58.56,797.27 -5.87,20.1 -24.22,33.11 -44.14,33.11z"/>
  <path class="fil6" d="M16582.88 13397.56c-1.15,0 -2.28,-0.03 -3.4,-0.12l-1545.77 -112.57c-25.31,-1.84 -44.4,-23.9 -42.52,-49.24 1.84,-25.36 23.98,-44.36 49.23,-42.55l1545.71 112.58c25.37,1.84 44.4,23.89 42.56,49.23 -1.76,24.21 -21.94,42.67 -45.81,42.67z"/>
  <path class="fil6" d="M15998.26 14184.12c-1.46,0 -2.94,-0.06 -4.43,-0.2l-1614.9 -154.7c-25.28,-2.45 -43.83,-24.93 -41.43,-50.21 2.45,-25.28 24.76,-43.99 50.21,-41.4l1614.9 154.72c25.31,2.4 43.82,24.88 41.4,50.16 -2.27,23.81 -22.31,41.63 -45.75,41.63z"/>
  <path class="fil6" d="M15412.52 15092.56c-2.33,0 -4.69,-0.2 -7.05,-0.43 -15.84,-2.53 -31.64,-4.84 -47.25,-6.97 -452.78,-62.05 -913.48,-111.02 -1369.33,-145.43 -25.34,-1.9 -44.34,-24.07 -42.41,-49.41 1.9,-25.3 23.86,-44.1 49.32,-42.4 457.73,34.6 920.29,83.78 1374.94,146.05 16.1,2.34 32.37,4.64 48.69,7.18 25.14,3.8 42.36,27.23 38.5,52.37 -3.48,22.77 -23.09,39.04 -45.41,39.04z"/>
  <path class="fil6" d="M14279.94 15655.52c-144.39,0 -289.59,-27.87 -422.2,-82.34 -23.53,-9.5 -34.75,-36.51 -25.13,-59.95 9.61,-23.4 36.48,-34.83 60,-25.1 175.02,71.55 373.97,93.08 560.2,60.35 25.05,-4.41 48.86,12.26 53.26,37.37 4.41,25.1 -12.35,48.97 -37.37,53.21 -61.99,10.97 -125.3,16.46 -188.76,16.46z"/>
  <path class="fil6" d="M15014.07 16547.12c-11.57,0 -23.12,-4.43 -32.07,-13.07 -262.87,-255.21 -481.74,-549.47 -650.58,-874.52 -11.72,-22.61 -2.93,-50.45 19.61,-62.05 22.54,-11.84 50.33,-2.96 62.04,19.61 164.29,316.21 377.27,602.64 633.05,850.88 18.23,17.74 18.66,46.85 0.95,65.21 -9.01,9.3 -21.02,13.94 -33,13.94z"/>
  <path class="fil6" d="M14228.17 16029.56c-4.72,0 -9.53,-0.87 -14.28,-2.33 -24.15,-8.04 -37.34,-33.98 -29.45,-58.05 33.28,-101.75 90.75,-195.9 166.22,-271.88 17.9,-17.94 47.04,-17.94 65.07,-0.2 18.02,17.94 18.13,47.08 0.22,65.21 -65.38,65.88 -115.19,147.13 -144.01,235.38 -6.36,19.4 -24.39,31.87 -43.77,31.87z"/>
  <path class="fil6" d="M11975.16 6732.41c-8.03,0 -16.15,-2.3 -23.52,-6.62 -93.89,-56.14 -200.33,-119.49 -273.06,-217.37 -70.77,-95.6 -110.1,-244.74 -38.41,-363.65 31.64,-52.4 77.88,-87.81 122.57,-122.08 21.94,-16.98 42.64,-32.82 61.12,-50.38 143.91,-135.9 140.82,-358.74 138.14,-555.68l-4.66 -355.87c-0.32,-25.34 20.01,-46.06 45.4,-46.64 25.19,0.29 46.27,20.16 46.62,45.49l4.63 355.87c2.83,205 6.34,460.09 -166.9,623.63 -21.91,20.73 -45.49,38.86 -68.27,56.43 -39.67,30.52 -77.19,59.31 -99.88,97.03 -49.38,81.77 -17.24,192.32 33.52,260.85 61.78,83.21 155.59,139.06 246.31,193.48 21.82,12.96 28.97,41.17 15.95,63.06 -8.64,14.39 -23.89,22.45 -39.56,22.45z"/>
  <path class="fil6" d="M3772.5 7947.11c-21.13,0 -40.13,-14.63 -44.88,-36.11 -5.5,-24.79 10.16,-49.34 34.98,-54.84l963.23 -213.15c24.73,-5.42 49.35,10.17 54.85,34.98 5.5,24.82 -10.17,49.38 -34.98,54.88l-963.2 213.15c-3.34,0.74 -6.71,1.09 -10,1.09z"/>
  <path class="fil11" d="M12993.18 13880.72c-178.42,0 -361.65,-16.94 -546.93,-51.23 -612.72,-113.44 -1168.86,-393.03 -1584.93,-623.94 -1156.56,-641.88 -2207.17,-1476.04 -3223.17,-2282.73 -19.9,-15.78 -23.21,-44.71 -7.44,-64.63 15.81,-19.9 44.75,-23.21 64.67,-7.4 1013.07,804.32 2060.66,1636.08 3210.6,2274.29 409.96,227.53 957.41,502.9 1557.03,613.92 597.05,110.5 1171.65,35.45 1617.84,-211.33 22.22,-12.32 50.24,-4.26 62.53,17.96 12.29,22.26 4.23,50.25 -17.99,62.54 -325.44,180.04 -715.48,272.55 -1132.21,272.55z"/>
  <path class="fil6" d="M24263.46 17720.73c-21.31,0 -40.09,-15.61 -43.25,-37.57 -55.11,-372.97 -104.48,-655.39 -140.39,-861.63 -72.41,-413.3 -99.42,-568.03 -46.01,-690.25 70.92,-162.1 112.72,-388.6 112.92,-390.71 1.9,-9.5 6.54,-17.93 13.54,-24.47 436.91,-406.54 544.56,-878.95 545.62,-883.82 4.87,-22.37 26.61,-37.34 49.18,-33.97 22.8,3.17 39.07,23.43 37.58,46.44 -10.14,146.49 44.34,278.42 126.65,306.92 80.21,27.44 185.34,-44.54 288.56,-197.57 85.91,-127.29 169.49,-236.21 243.37,-332.26 170.76,-222.56 294.02,-383.36 307.96,-584.38 21.97,-319.1 28.93,-808.59 -62.68,-1328.19 -35.05,-198.06 -101.55,-333.3 -192.51,-391.06 -69.24,-43.9 -129.18,-28.35 -131.72,-27.66 -12.86,3.51 -27.03,1 -37.77,-6.88 -10.77,-7.9 -17.54,-20.19 -18.17,-33.52 0,-1.44 -8.23,-153.89 -111.45,-303.41 -13.71,-19.95 -8.87,-47.3 11.2,-61.09 20.04,-13.76 47.27,-8.73 61.21,11.23 82.55,119.6 111.45,239.17 121.59,302.86 37.37,-0.52 91.81,6.97 149.22,42.41 115.69,71.55 194.61,223.57 234.94,451.85 93.29,528.36 86.12,1025.48 63.75,1349.5 -15.63,227.43 -152.62,405.88 -325.92,631.75 -73.02,95.19 -155.77,203.07 -240.21,328.03 -174.14,258.14 -319.16,255.61 -390.07,231.34 -74.32,-25.54 -131.73,-95.62 -162.33,-189.57 -72.82,181.97 -220.15,463.55 -497.72,725.5 -10.57,54.24 -51.08,246.97 -116.33,396 -42.63,97.92 -14.97,256.45 51.95,639.98 36.3,206.67 85.68,489.72 140.79,863.96 3.6,23.87 -12.87,46.24 -36.94,49.83 -2.11,0.21 -4.43,0.41 -6.56,0.41z"/>
  <path class="fil6" d="M37858.11 18188.91c-2.01,0 -4.02,-0.2 -6.04,-0.43 -24.19,-3.37 -40.89,-25.54 -37.43,-49.58 57.87,-416.91 118.62,-1604.65 125.53,-1739.11 -59.88,-111.05 -89.25,-203.27 -117.76,-292.55 -47.22,-149.23 -96.16,-303.76 -299.14,-560 -220.26,-277.78 -317.87,-550.09 -359.61,-709.66 -44.34,53.81 -109.12,90.35 -180.53,94.75 -56.43,3.4 -245.88,-9.5 -309.51,-327.99 -26.2,-131.01 -59.02,-274.15 -90.98,-412.56 -76.01,-330.84 -147.7,-643.32 -136.18,-809.71 17.27,-247.98 113.72,-541.95 259.12,-786.33 133.3,-224.72 344.93,-250.09 422.95,-251.39 55.28,-98.66 120.92,-179.91 195.5,-241.78 18.43,-15.5 46.36,-12.94 61.9,5.73 15.26,18.65 12.67,46.35 -5.76,61.87 -71.69,59.39 -134.45,139.87 -186.86,239.23 -8.34,15.66 -25.62,24.9 -42.9,23.2 -9.21,-0.68 -236.09,-16.87 -369.4,207.99 -138.48,233.16 -230.62,512.59 -247.03,747.52 -10.36,153.38 63.34,473.94 134.46,784.01 31.67,139 64.78,282.76 91.27,415.11 33.69,167.6 114.59,263.85 217.67,257.52 82.05,-5.27 150.86,-74.72 156.91,-158.1 1.73,-22.6 20.15,-40.34 42.9,-40.94 0.29,0 0.58,0 0.86,0 22.17,0 41.18,16.67 43.77,39.04 0.28,3.81 50.67,404.64 370.26,807.82 213.06,268.91 264.31,431.24 314.11,588.27 29.38,92.02 57.01,179.23 116.9,287.48 4.03,7.2 5.76,15.43 5.47,23.44 -0.57,13.1 -65.36,1315.47 -126.97,1759.17 -3.17,21.94 -21.88,37.98 -43.48,37.98z"/>
  <path class="fil7" d="M8476.21 23541.96l0.24 0 -0.24 0zm34.21 30.61l0 0zm-14.97 6.53l0 0 0 0zm-56.92 700.39c851.37,361.14 1747.8,603.24 2665.28,720l14.08 -4c30.6,-95.22 56.28,-193.17 76.38,-291.52 48.48,-237.05 65.88,-479.39 51.71,-720.43 -0.66,-10.77 -1.01,-21.34 -1.38,-31.67 -2.59,-75.35 -6.74,-90.75 -48.6,-99.62 -32.48,-6.97 -67.03,-6.33 -103.48,-5.5 -23,0.43 -46.79,1.07 -71.06,-0.43 -114.04,-6.74 -229.01,-14.14 -341.78,-22.14 -223.94,-15.83 -451,-34.84 -674.85,-56.15 -287.43,-27.44 -578.28,-59.97 -864.45,-96.24 -178.62,-22.61 -359.81,-47.51 -538.57,-73.68l-69.89 -10.34c-5.75,-1.07 -13.18,-2.97 -21.07,-5.07 -1.12,-0.23 -2.45,-0.63 -3.83,-1.07 -0.17,0.64 -0.35,1.27 -0.52,1.7 -5.64,19.21 -6.01,41.58 -6.42,65.02 -0.29,15.2 -0.54,30.8 -2.21,47.07l-59.34 584.07zm2668.85 812.85c-1.9,0 -3.83,0 -5.76,-0.2 -940.4,-118.82 -1859.03,-368.34 -2730.38,-741.3 -18.51,-8.04 -29.74,-27.04 -27.67,-47.08l62.77 -617.64c1.27,-12.23 1.49,-25.54 1.72,-39.24 0.46,-27.44 1.01,-58.48 10.2,-89.52 4.52,-15.4 10.97,-32.93 24.73,-47.27l0 0c10.65,-11.2 24.27,-18.57 39.36,-21.74 18.6,-3.8 36.88,1.27 53.03,5.67 3.8,1.07 7.34,2.13 10.16,2.57l69.65 10.33c178.17,26.18 358.75,50.88 536.8,73.65 285.24,36.11 575.08,68.41 861.56,95.85 223.13,21.3 449.47,40.1 672.69,55.94 112.35,8.01 226.97,15.4 340.64,22.14 20.53,1.3 41.43,0.66 63.57,0.23 40.22,-0.86 81.74,-1.7 124.78,7.38 115.74,24.69 118.97,118.21 121.33,186.59 0.32,9.51 0.66,19.44 1.26,29.57 14.63,248.85 -3.3,499.19 -53.37,744.07 -22.49,109.95 -51.63,219.3 -86.75,325.25 -4.78,14.37 -16.41,25.55 -31.04,29.78l-46.64 13.3c-4.12,1.06 -8.38,1.67 -12.64,1.67z"/>
  <path class="fil7" d="M15219.85 23599.37c71.4,388.6 178.22,772.77 317.63,1142.37l3.77 10.14c382.7,-45.61 762.81,-131.93 1130.31,-257.11 221.78,-75.55 440.71,-165.9 650.66,-268.49 105.23,-51.5 209.95,-106.79 311.18,-164.63 13.88,-8.03 29.83,-14.8 45.26,-21.54 23.47,-9.93 52.72,-22.6 62.13,-35.04 19.13,-24.9 15.21,-67.97 8.56,-99.84 -11.8,-56.15 -25.14,-113.56 -37.98,-168.87 -6.59,-28.3 -13.13,-56.37 -19.49,-84.64l-106.27 -468.39c-782.45,152.83 -1578.25,292.76 -2365.76,416.04zm290.74 1248.35c-19.06,0 -36.39,-11.83 -43.13,-30l-16.18 -43.9c-145.4,-385.21 -255.84,-786.68 -328.17,-1192.38 -3.51,-19.64 6.02,-39.28 23.64,-48.55l33.11 -17.73c4.52,-2.54 9.44,-4.04 14.54,-4.87 798.91,-124.95 1606.41,-267.01 2399.99,-422.58 3.17,-0.63 6.39,-0.86 9.59,-0.86l18.19 0.23c21.23,0.43 39.45,15.17 44.17,35.88l115.26 508.52c6.36,28.06 12.87,56.14 19.4,83.98 12.96,55.94 26.4,113.79 38.38,170.96 15.43,73.48 6.91,132.16 -25.34,174.37 -24.12,31.87 -63.94,48.98 -99.1,63.98 -13.64,5.9 -26.57,11.36 -35.93,16.67 -102.9,58.87 -209.37,115.25 -316.36,167.39 -213.44,104.49 -435.97,196.3 -661.44,273.12 -385.23,131.09 -784.08,220.37 -1185.47,265.54 -1.73,0.23 -3.45,0.23 -5.15,0.23z"/>
 </g>
</svg>
